<?xml version="1.0" standalone="no"?>
<!DOCTYPE svg PUBLIC "-//W3C//DTD SVG 20010904//EN"
 "http://www.w3.org/TR/2001/REC-SVG-20010904/DTD/svg10.dtd">
<svg version="1.0" xmlns="http://www.w3.org/2000/svg"
 width="512.000000pt" height="512.000000pt" viewBox="0 0 512.000000 512.000000"
 preserveAspectRatio="xMidYMid meet">
<metadata>
Created by potrace 1.14, written by Peter Selinger 2001-2017
</metadata>
<g transform="translate(0.000000,512.000000) scale(0.100000,-0.100000)"
fill="#000000" stroke="none">
<path d="M1412 5025 c-78 -22 -111 -42 -178 -110 -42 -43 -69 -81 -85 -121
l-24 -59 -2 -2161 c-3 -2099 -2 -2162 16 -2216 45 -131 140 -224 270 -262 48
-14 179 -16 1155 -16 l1101 1 67 23 c119 42 200 124 246 249 l22 57 0 2143 c0
1523 -3 2154 -11 2182 -19 68 -46 118 -90 169 -50 57 -102 91 -176 117 -52 18
-106 18 -1156 18 -922 0 -1111 -3 -1155 -14z m2251 -154 c55 -13 114 -58 144
-108 19 -33 26 -62 30 -123 l6 -80 -1283 0 -1283 0 5 74 c8 122 61 198 163
234 37 13 2162 16 2218 3z m177 -1851 c0 -759 -2 -1380 -5 -1380 -3 0 -26 15
-52 34 -40 29 -115 66 -208 106 -11 5 -105 36 -210 70 -170 56 -305 114 -359
155 -17 13 -13 20 76 107 107 106 197 234 268 383 74 153 106 252 155 490 4
17 8 95 10 175 3 147 -11 252 -48 355 -114 316 -381 550 -712 626 -134 30
-346 18 -490 -28 -181 -58 -359 -187 -474 -343 -92 -124 -145 -246 -176 -405
-16 -79 -14 -317 4 -400 6 -27 13 -61 16 -75 3 -14 8 -38 10 -53 12 -66 81
-250 129 -348 85 -170 171 -287 296 -406 63 -60 64 -62 45 -77 -55 -42 -190
-100 -375 -161 -229 -76 -330 -119 -401 -170 -27 -19 -51 -35 -54 -35 -3 0 -5
621 -5 1380 l0 1380 1280 0 1280 0 0 -1380z m-1251 243 c81 -160 263 -324 432
-392 70 -28 205 -61 249 -61 28 0 26 -18 -16 -124 -51 -126 -83 -188 -152
-292 -151 -225 -345 -355 -532 -357 -86 -1 -118 4 -180 29 -182 73 -344 241
-465 481 -45 90 -103 248 -95 256 3 3 28 8 55 12 255 33 469 172 616 399 30
47 57 85 61 85 4 1 16 -16 27 -36z m-236 -1358 c85 -31 123 -38 207 -38 88 -1
133 7 217 38 l72 25 41 -40 c22 -22 59 -49 81 -60 l40 -21 -27 -35 c-80 -105
-215 -163 -393 -170 -183 -7 -319 38 -419 138 -28 28 -52 57 -52 63 0 5 22 25
49 43 26 18 58 43 71 57 13 14 28 25 33 25 5 0 41 -11 80 -25z m-567 -471 c12
-3 30 -21 40 -39 15 -28 15 -37 5 -63 -18 -44 -47 -52 -192 -52 -147 0 -183
12 -194 62 -7 31 19 85 44 91 25 7 273 7 297 1z m240 -320 c12 -3 30 -21 40
-39 15 -28 15 -37 5 -63 -7 -16 -24 -34 -37 -41 -16 -7 -111 -11 -275 -11
-217 0 -255 2 -279 17 -50 29 -51 96 -2 126 23 14 61 16 277 17 138 0 260 -3
271 -6z m1814 -612 c0 -108 -47 -192 -132 -239 -31 -17 -88 -18 -1143 -18
-1048 0 -1112 1 -1146 18 -45 22 -93 69 -115 110 -9 18 -19 67 -21 110 l-6 77
1282 0 1281 0 0 -58z"/>
</g>
</svg>
